<?xml version="1.0" encoding="UTF-8" standalone="no"?>
<!-- Created with Inkscape (http://www.inkscape.org/) -->

<svg
   xmlns:dc="http://purl.org/dc/elements/1.1/"
   xmlns:cc="http://creativecommons.org/ns#"
   xmlns:rdf="http://www.w3.org/1999/02/22-rdf-syntax-ns#"
   xmlns:svg="http://www.w3.org/2000/svg"
   xmlns="http://www.w3.org/2000/svg"
   xmlns:sodipodi="http://sodipodi.sourceforge.net/DTD/sodipodi-0.dtd"
   xmlns:inkscape="http://www.inkscape.org/namespaces/inkscape"
   width="1366"
   height="768"
   viewBox="0 0 361.42083 203.2"
   version="1.1"
   id="svg8"
   inkscape:export-filename="D:\menu.png"
   inkscape:export-xdpi="96.000008"
   inkscape:export-ydpi="96.000008"
   inkscape:version="0.92.1 r15371"
   sodipodi:docname="menu.svg">
  <defs
     id="defs2">
    <inkscape:path-effect
       effect="bspline"
       id="path-effect5331"
       is_visible="true"
       weight="33.333333"
       steps="2"
       helper_size="0"
       apply_no_weight="true"
       apply_with_weight="true"
       only_selected="false" />
    <inkscape:path-effect
       effect="bspline"
       id="path-effect5327"
       is_visible="true"
       weight="33.333333"
       steps="2"
       helper_size="0"
       apply_no_weight="true"
       apply_with_weight="true"
       only_selected="false" />
    <inkscape:path-effect
       effect="bspline"
       id="path-effect5323"
       is_visible="true"
       weight="33.333333"
       steps="2"
       helper_size="0"
       apply_no_weight="true"
       apply_with_weight="true"
       only_selected="false" />
    <inkscape:path-effect
       effect="bspline"
       id="path-effect5319"
       is_visible="true"
       weight="33.333333"
       steps="2"
       helper_size="0"
       apply_no_weight="true"
       apply_with_weight="true"
       only_selected="false" />
  </defs>
  <sodipodi:namedview
     id="base"
     pagecolor="#ffffff"
     bordercolor="#666666"
     borderopacity="1.0"
     inkscape:pageopacity="0.0"
     inkscape:pageshadow="2"
     inkscape:zoom="2.8284271"
     inkscape:cx="143.25909"
     inkscape:cy="696.39202"
     inkscape:document-units="mm"
     inkscape:current-layer="g5335"
     showgrid="true"
     units="px"
     inkscape:window-width="1440"
     inkscape:window-height="837"
     inkscape:window-x="-8"
     inkscape:window-y="-8"
     inkscape:window-maximized="1"
     inkscape:snap-others="false"
     inkscape:object-nodes="false"
     inkscape:snap-nodes="false">
    <inkscape:grid
       type="xygrid"
       id="grid5315"
       empspacing="48" />
  </sodipodi:namedview>
  <metadata
     id="metadata5">
    <rdf:RDF>
      <cc:Work
         rdf:about="">
        <dc:format>image/svg+xml</dc:format>
        <dc:type
           rdf:resource="http://purl.org/dc/dcmitype/StillImage" />
        <dc:title></dc:title>
      </cc:Work>
    </rdf:RDF>
  </metadata>
  <g
     inkscape:label="Layer 1"
     inkscape:groupmode="layer"
     id="layer1"
     transform="translate(0,-93.799973)">
    <g
       id="g5335">
      <path
         inkscape:original-d="M 0.26458333,26.331223 C 0.97040347,27.036514 1.675959,27.74207 2.38125,28.44789"
         inkscape:path-effect="#path-effect5327"
         inkscape:connector-curvature="0"
         id="path5325"
         d="M 0.26458333,26.331223 C 0.97013884,27.036779 1.6756946,27.742334 2.38125,28.44789"
         style="fill:none;fill-rule:evenodd;stroke:#ffffff;stroke-width:0.39687499;stroke-linecap:butt;stroke-linejoin:miter;stroke-miterlimit:4;stroke-dasharray:none;stroke-opacity:1" />
      <path
         inkscape:original-d="M 0.26458333,28.44789 C 0.97040347,27.74207 1.675959,27.036514 2.38125,26.331223"
         inkscape:path-effect="#path-effect5331"
         inkscape:connector-curvature="0"
         id="path5329"
         d="M 0.26458333,28.44789 C 0.97040334,27.74207 1.6759591,27.036514 2.38125,26.331223"
         style="fill:none;fill-rule:evenodd;stroke:#ffffff;stroke-width:0.39687499;stroke-linecap:butt;stroke-linejoin:miter;stroke-miterlimit:4;stroke-dasharray:none;stroke-opacity:1" />
      <rect
         style="fill:#bdc3c7;fill-opacity:1;stroke:none;stroke-width:1.12071455;stroke-linecap:butt;stroke-linejoin:miter;stroke-miterlimit:4;stroke-dasharray:none;stroke-opacity:0.50196078"
         id="rect4490"
         width="353.54779"
         height="46.609646"
         x="4.1903539"
         y="246.19997" />
      <path
         style="fill:#ffffff;fill-opacity:1;fill-rule:evenodd;stroke:none;stroke-width:0.37008297;stroke-linecap:butt;stroke-linejoin:miter;stroke-miterlimit:4;stroke-dasharray:none;stroke-opacity:1"
         d="m 6.1565596,94.230831 c -0.4592291,0.01054 -0.8737089,0.08004 -1.2345736,0.16191 -0.962306,0.218332 -1.5645916,0.645527 -2.0795483,1.226623 -0.5149566,0.581097 -0.739309,1.174008 -0.8182302,1.67694 -0.078921,0.502933 -0.050149,0.911834 0,1.185422 0.050149,0.273587 0.2390843,0.378739 0.1987748,0.782812 -0.04031,0.404074 -0.6826655,1.139672 -0.6772808,1.460092 0.00539,0.32042 0.1142504,0.27007 0.2103401,0.34479 0.09609,0.0747 0.2665767,0.0466 0.3440616,0.0932 0.077485,0.0466 0.059848,0.0726 0.058548,0.21612 -0.0013,0.14348 -0.017347,0.53778 -0.017347,0.53778 l 0.2573229,0.14023 v 0.1048 c 0,0 -0.093885,0.0442 -0.093966,0.16408 -8.17e-5,0.11991 0.2130394,0.26141 0.2631061,0.46116 0.05006,0.19976 -0.034104,0.36958 -0.017348,0.52549 0.016757,0.15591 -0.00849,0.34714 0.081679,0.45031 0.090121,0.10322 0.2322682,0.14704 0.5139239,0.1865 0.2816553,0.0394 0.7944553,-0.0646 1.1565093,-0.0817 0.3620522,-0.0171 0.6889606,-0.0214 0.946169,0.51972 0.2572084,0.54108 0.8059423,1.77017 0.8059423,1.77017 0,0 0.6650125,-1.24479 1.6133309,-2.01449 0.948318,-0.7697 1.6458571,-0.98664 1.6458571,-0.98664 0,0 -0.219246,-0.46922 -0.059993,-1.12833 0.159254,-0.65909 0.5167608,-1.20381 0.9837533,-1.82872 0.466994,-0.624869 0.769604,-1.282214 0.654151,-2.289845 C 10.77629,96.901622 10.344166,95.722128 8.78545,94.883536 7.8112509,94.359417 6.9219411,94.213266 6.1565596,94.230831 Z m -0.600662,1.079891 c 0.2124366,0.0049 0.4355621,0.05581 0.5456288,0.176967 0.1101232,0.121204 0.044458,0.237767 0.00577,0.346953 -0.041269,0.116409 -0.168824,0.215324 -0.226242,0.334665 -0.060355,0.125479 0.00389,0.337793 0.1033622,0.458267 0.1075214,0.130243 0.3163892,0.201736 0.4944079,0.201666 0.1776596,-8.9e-5 0.3854411,-0.07141 0.492962,-0.201666 C 7.0711805,96.507118 7.1347826,96.294787 7.074428,96.169307 7.017013,96.049966 6.8894487,95.951045 6.8481858,95.834642 6.8095388,95.725455 6.7431792,95.60889 6.8532558,95.487689 6.963321,95.366561 7.351449,95.315617 7.5638854,95.310722 c 0.236556,-0.0053 0.3657091,0.02626 0.5398461,0.07867 0.1040371,0.0313 0.243814,0.08604 0.2949099,0.138778 0.052998,0.05474 0.071626,0.14658 0.05638,0.221182 -0.045542,0.223691 -0.080937,0.422365 -0.1019177,0.636082 -0.018574,0.188466 -0.047911,0.377236 -0.021685,0.568134 0.010581,0.07709 0.071136,0.169653 0.1481777,0.180703 0.1020552,0.01451 0.1755762,-0.103079 0.2558776,-0.174919 0.09938,-0.08893 0.2274003,-0.166694 0.3606864,-0.17131 0.1595653,-0.0056 0.3368589,0.05759 0.4467017,0.173478 0.1149023,0.121204 0.1539135,0.359872 0.152514,0.550063 -0.00145,0.19103 -0.047005,0.428141 -0.1619114,0.549342 -0.1098407,0.115875 -0.286408,0.178933 -0.4459789,0.173478 -0.1332814,-0.0046 -0.2612918,-0.08239 -0.3606862,-0.171309 -0.080315,-0.07182 -0.1538116,-0.188774 -0.2558779,-0.1742 -0.077036,0.01099 -0.1382697,0.102881 -0.1488999,0.179983 -0.026268,0.190898 0.00311,0.38039 0.021685,0.568857 0.020995,0.213716 0.056389,0.412391 0.1019178,0.636081 0.015254,0.0746 -0.00281,0.166465 -0.055658,0.221183 -0.051099,0.05282 -0.1395416,0.04729 -0.2117855,0.06072 -0.2479954,0.04646 -0.4689149,0.08844 -0.7054708,0.08312 -0.212436,-0.0049 -0.5187853,0.01705 -0.628852,-0.104072 -0.1101079,-0.121204 -0.042957,-0.237768 -0.00434,-0.346953 0.041269,-0.11641 0.1681013,-0.215326 0.2255193,-0.334667 0.060359,-0.125476 -0.0032,-0.337066 -0.1026352,-0.45754 -0.107523,-0.130258 -0.3163903,-0.201736 -0.4944081,-0.201666 -0.1776593,9e-5 -0.3854409,0.07143 -0.492962,0.201666 -0.099394,0.120471 -0.1629956,0.332063 -0.10264,0.457543 0.057414,0.119341 0.1849793,0.218263 0.226242,0.334667 0.038647,0.109187 0.1043257,0.225752 -0.00577,0.346953 -0.1100621,0.121127 -0.4156911,0.09919 -0.6281288,0.104072 -0.2365549,0.0053 -0.4574759,-0.03666 -0.7054708,-0.08312 -0.072241,-0.01344 -0.1614128,-0.0079 -0.2125085,-0.06072 -0.052998,-0.05474 -0.07018,-0.14658 -0.054934,-0.221183 0.045528,-0.22369 0.080937,-0.422362 0.1019177,-0.636081 0.018576,-0.18847 0.047953,-0.377959 0.021685,-0.568857 -0.010612,-0.07709 -0.071872,-0.168933 -0.1488999,-0.179983 -0.1020765,-0.0145 -0.1748672,0.102362 -0.2551549,0.1742 -0.099391,0.08891 -0.2274003,0.166693 -0.3606862,0.171309 -0.1595712,0.0055 -0.3368587,-0.05759 -0.4467019,-0.173478 -0.1149268,-0.121204 -0.1546364,-0.359152 -0.1532373,-0.549342 0.00145,-0.191028 0.047727,-0.428862 0.162634,-0.550063 0.1098423,-0.115875 0.286408,-0.178934 0.445979,-0.173478 0.1332799,0.0046 0.26132,0.08239 0.3606862,0.17131 0.080296,0.07182 0.1538117,0.189509 0.2558779,0.174919 0.077037,-0.01099 0.1375475,-0.103599 0.1481776,-0.180703 0.026269,-0.190898 -0.00311,-0.379666 -0.021685,-0.568134 -0.020995,-0.213717 -0.055665,-0.412391 -0.1011941,-0.636082 -0.015238,-0.0746 0.00195,-0.166463 0.054934,-0.221182 0.051099,-0.05281 0.2706495,-0.103202 0.4112834,-0.135892 0.1928889,-0.04485 0.3519187,-0.08688 0.5884732,-0.08157 z"
         id="path4507"
         inkscape:connector-curvature="0"
         sodipodi:nodetypes="ccssscccccccccccccsccscccccccccccccccccacccccccccccccccccccccccccccccccccccccccccccccccacc" />
      <path
         style="fill:#ffffff;fill-opacity:1;stroke:none;stroke-width:0.49773425;stroke-linecap:butt;stroke-linejoin:round;stroke-miterlimit:4;stroke-dasharray:none;stroke-opacity:1"
         d="m 16.749516,95.392222 c -1.436711,-0.0104 -3.001526,0.899202 -3.016986,2.848202 -0.0126,1.590053 0.965711,3.135976 2.205238,4.229886 1.052143,0.92856 3.19522,2.82995 3.19522,2.82995 0,0 2.143079,-1.90139 3.195222,-2.82995 1.239525,-1.09391 2.217943,-2.639833 2.205236,-4.229886 -0.01554,-1.949 -1.713439,-2.858634 -3.15015,-2.848202 -1.509697,0.01098 -2.191372,1.769328 -2.250763,1.955346 -0.05965,-0.186789 -0.8737,-1.944376 -2.383017,-1.955346 z"
         id="path4563"
         inkscape:connector-curvature="0"
         sodipodi:nodetypes="ccscccscc" />
      <path
         style="fill:#ffffff;fill-opacity:1;fill-rule:evenodd;stroke:none;stroke-width:0.22555211px;stroke-linecap:butt;stroke-linejoin:miter;stroke-opacity:1"
         d="m 32.56045,104.66864 c 0.633321,-0.36049 1.159325,-0.91099 1.594894,-1.49523 0.319742,-0.42887 0.456828,-0.96838 0.717702,-1.43541 0.301264,-0.53933 0.624496,-1.06754 0.976874,-1.57495 0.148605,-0.213988 0.424944,-0.363048 0.478467,-0.618018 0.01689,-0.0805 -0.009,-0.17452 -0.05981,-0.23924 -0.07881,-0.10063 -0.212168,-0.16284 -0.338913,-0.17942 -0.175824,-0.023 -0.358005,0.0439 -0.518343,0.11962 -0.197106,0.0931 -0.370259,0.23876 -0.518338,0.39873 -0.264187,0.2854 -0.360745,0.704098 -0.637958,0.976858 -0.166574,0.16391 -0.359516,0.36685 -0.593102,0.3738 -0.151616,0.004 -0.31925,-0.0901 -0.398724,-0.21929 -0.218981,-0.356 -0.03585,-0.835218 -0.04386,-1.253098 -0.0018,-0.099 -0.004,-0.198 -10e-4,-0.29693 0.0252,-0.825362 0.09328,-1.62395 0.159492,-2.472094 0.01265,-0.162417 0.07648,-0.376623 0.08183,-0.567756 0.0067,-0.236859 0.06374,-0.507244 -0.06189,-0.708159 -0.06163,-0.09857 -0.183695,-0.164991 -0.299043,-0.179424 -0.137686,-0.01724 -0.29755,0.02465 -0.398722,0.119614 -0.139509,0.130957 -0.155905,0.351942 -0.199364,0.538276 -0.135059,0.579084 -0.09444,1.186539 -0.184407,1.77432 -0.05836,0.381246 -0.07717,0.699374 -0.230124,1.133944 -0.03001,0.08529 -0.140185,0.178479 -0.233393,0.161869 -0.10307,-0.0183 -0.177028,-0.180616 -0.180381,-0.257101 -0.05231,-1.193353 0.08263,-2.425417 -0.02896,-3.630449 -0.01743,-0.188209 -0.009,-0.392299 -0.09968,-0.558214 -0.06082,-0.111439 -0.15524,-0.231307 -0.279104,-0.259171 -0.129192,-0.02905 -0.283322,0.02786 -0.378789,0.119614 -0.127315,0.122352 -0.144254,0.325371 -0.179427,0.498405 -0.119307,0.587004 -0.07756,1.195657 -0.09968,1.794256 -0.02398,0.64942 -0.02602,1.267044 -0.03641,1.9251 0.0186,0.20676 -0.06948,0.27836 -0.177934,0.272861 -0.130401,-0.0068 -0.171061,-0.193461 -0.179651,-0.348052 -0.128733,-1.073562 0.0033,-2.218575 -0.343677,-3.225507 -0.07389,-0.214447 -0.151281,-0.486701 -0.358851,-0.578148 -0.099,-0.04361 -0.227783,0.0015 -0.31898,0.05981 -0.09638,0.0615 -0.16447,0.170228 -0.199363,0.279105 -0.168326,0.525255 -0.02084,1.10353 0,1.654703 0.03057,0.808205 0.15959,1.53772 0.196156,2.309438 0.03317,0.25493 -0.04036,0.27861 -0.146283,0.2823 -0.159463,0.006 -0.200596,-0.25672 -0.249202,-0.408698 -0.260272,-0.813794 -0.246802,-1.725664 -0.578149,-2.52192 -0.05736,-0.137866 -0.104224,-0.314968 -0.239234,-0.378788 -0.09687,-0.04579 -0.225975,-0.01335 -0.318979,0.03987 -0.0946,0.05414 -0.164265,0.155983 -0.199362,0.259171 -0.07491,0.2202 -0.02202,0.466224 0,0.697767 0.06341,0.666892 0.285751,1.310276 0.378788,1.973688 0.0519,0.37 0.106949,0.74286 0.09968,1.116418 -0.01265,0.65044 -0.01237,1.2267 0.05981,1.83413 0.06968,0.58627 0.1451,1.18411 0.358852,1.73445 0.117597,0.30278 0.249211,0.62899 0.498404,0.83733 0.261363,0.21851 0.621433,0.29975 0.956938,0.35885 0.654492,0.11539 1.336102,0.0766 1.993617,-0.0199 0.260095,-0.0382 0.529094,-0.0892 0.757566,-0.21929 z"
         id="path4608"
         inkscape:connector-curvature="0"
         sodipodi:nodetypes="caaaaaaaaaaaaasaaaaaasasaaaaascacsaaascasaaaaaasaaaaaac" />
    </g>
  </g>
</svg>
